<?xml version="1.0" standalone="no"?>
<!DOCTYPE svg PUBLIC "-//W3C//DTD SVG 20010904//EN"
 "http://www.w3.org/TR/2001/REC-SVG-20010904/DTD/svg10.dtd">
<svg version="1.0" xmlns="http://www.w3.org/2000/svg"
 width="1060.000000pt" height="1061.000000pt" viewBox="0 0 1060.000000 1061.000000"
 preserveAspectRatio="xMidYMid meet">

<g transform="translate(0.000000,1061.000000) scale(0.100000,-0.100000)"
fill="#000000" stroke="none">
<path d="M7150 9793 c-69 -12 -108 -13 -210 -4 -233 21 -365 9 -469 -40 -63
-31 -179 -150 -217 -224 l-30 -61 -56 22 c-104 40 -158 49 -303 49 -203 -1
-293 -32 -437 -152 -84 -70 -149 -142 -193 -213 -15 -25 -29 -46 -30 -48 -2
-2 -40 26 -84 62 -145 118 -276 170 -417 169 -224 -1 -376 -106 -541 -372
-129 -207 -143 -256 -143 -505 l0 -133 -42 20 c-30 15 -68 22 -130 25 -77 4
-98 1 -166 -23 -98 -35 -161 -77 -243 -162 -109 -113 -165 -226 -178 -357 -4
-45 -28 -150 -54 -236 -109 -369 -127 -465 -158 -857 -11 -141 -33 -396 -50
-567 -76 -791 -94 -1018 -105 -1326 -11 -324 33 -731 126 -1155 69 -315 85
-487 71 -775 -25 -490 -43 -823 -67 -1233 -24 -417 -25 -440 -8 -458 22 -24
59 -24 82 -1 15 15 20 59 35 352 10 184 20 358 22 385 12 140 55 1061 55 1175
0 139 -24 311 -84 610 -87 423 -117 665 -120 935 -1 153 11 494 19 518 2 7 6
57 10 112 3 55 19 240 36 410 68 705 79 819 94 1015 8 113 22 255 31 315 15
109 80 393 93 408 4 4 27 -66 51 -155 63 -237 133 -449 211 -647 38 -95 94
-248 125 -340 31 -91 76 -207 100 -258 50 -105 141 -224 216 -284 35 -27 64
-62 85 -102 45 -83 78 -115 138 -132 111 -33 251 28 299 129 18 39 21 129 5
195 -5 24 -8 45 -6 47 1 2 25 -13 53 -33 27 -19 77 -49 112 -65 55 -26 66 -37
89 -82 33 -67 57 -92 118 -124 44 -24 62 -27 140 -27 75 0 99 5 145 26 111 52
164 136 165 264 l1 80 53 2 c133 6 225 72 275 198 15 39 38 79 51 90 41 36
115 135 147 198 61 122 73 175 104 457 8 80 24 183 36 230 18 78 86 241 121
290 14 20 16 17 37 -52 31 -101 64 -172 159 -335 169 -292 172 -326 65 -711
-118 -422 -162 -697 -129 -802 9 -27 49 -36 78 -17 22 14 24 24 30 140 8 159
41 324 121 614 124 446 119 515 -68 842 -52 92 -105 189 -116 217 -98 226 -78
588 46 859 l26 57 73 -148 c134 -275 250 -397 391 -411 71 -8 132 16 179 68
l36 40 47 -39 c72 -61 231 -229 290 -307 63 -84 136 -227 156 -310 9 -33 24
-154 35 -270 11 -115 46 -437 77 -715 47 -418 57 -536 58 -685 1 -179 1 -181
-32 -275 -36 -104 -103 -230 -237 -445 -48 -77 -155 -264 -238 -415 -260 -477
-333 -588 -522 -804 -78 -89 -186 -175 -321 -256 -60 -35 -125 -77 -145 -93
-47 -37 -82 -102 -111 -207 -35 -129 -31 -372 15 -900 20 -228 41 -491 47
-585 5 -93 12 -201 15 -239 6 -99 47 -134 96 -85 19 19 20 28 15 122 -13 203
-37 518 -62 807 -37 437 -45 604 -34 717 11 117 41 221 75 262 14 16 72 56
128 89 263 154 420 315 639 652 77 118 116 186 282 493 54 98 148 263 210 365
208 344 251 432 280 574 20 94 20 269 2 467 -7 79 -10 157 -6 175 4 17 29 92
55 166 247 710 315 1005 301 1300 -5 128 -17 209 -65 465 -43 226 -51 272 -60
370 -6 55 -13 147 -16 205 -22 381 -35 519 -61 650 -47 232 -177 484 -324 630
-129 129 -262 162 -490 123z m232 -104 c72 -15 123 -46 188 -115 138 -145 240
-352 284 -574 19 -95 43 -329 51 -485 15 -328 23 -392 91 -759 52 -283 67
-427 59 -556 -8 -117 -44 -305 -91 -470 -42 -148 -184 -583 -189 -578 -5 5
-72 611 -85 773 -15 165 -34 261 -72 352 -36 88 -120 224 -184 299 -26 30 -45
56 -43 58 2 2 85 7 183 13 169 9 180 11 197 32 33 41 25 56 -71 125 -55 39
-103 128 -126 231 -8 39 -18 138 -21 221 -7 173 9 295 57 442 24 73 26 90 15
107 -19 30 -51 30 -118 -1 -76 -34 -150 -54 -202 -54 -82 0 -110 -16 -179 -98
-35 -42 -82 -93 -103 -113 -44 -42 -149 -119 -160 -119 -4 1 -32 39 -62 85
-30 47 -75 108 -101 138 l-48 53 5 70 c9 126 -46 228 -151 278 -76 36 -194 31
-278 -11 -16 -7 -28 -11 -28 -8 0 2 30 91 66 197 77 225 109 291 177 358 102
101 176 117 457 100 162 -9 209 -9 280 3 110 18 138 19 202 6z m-1316 -290
c38 -12 81 -28 96 -35 25 -13 26 -17 16 -42 -6 -15 -36 -97 -68 -183 -50 -137
-65 -168 -124 -245 -36 -49 -88 -132 -115 -184 -131 -255 -135 -317 -22 -430
73 -73 212 -130 317 -130 30 0 34 -3 29 -19 -41 -130 -75 -309 -75 -397 0 -44
-13 -76 -104 -255 -121 -240 -135 -287 -166 -579 -12 -107 -27 -222 -36 -255
-16 -68 -77 -195 -105 -221 -19 -17 -19 -14 -19 92 0 128 -15 327 -31 401 -33
163 -196 222 -396 144 -88 -35 -132 -73 -152 -133 -12 -37 -41 -313 -41 -389
0 -26 -4 -51 -10 -54 -5 -3 -10 2 -10 12 0 10 -7 115 -15 233 -35 489 -39 896
-10 1137 21 170 66 357 135 564 66 195 91 290 126 487 32 180 46 207 163 323
107 106 180 151 285 175 83 19 242 11 332 -17z m-1266 -170 c106 -24 260 -124
342 -222 l36 -44 -29 -144 c-17 -79 -59 -232 -95 -339 -75 -228 -97 -312 -124
-469 -36 -205 -44 -441 -31 -834 7 -193 14 -377 17 -407 2 -30 6 -74 8 -96 l3
-42 -56 -6 c-108 -12 -211 -78 -228 -145 -7 -26 14 -198 49 -409 11 -68 18
-126 14 -129 -7 -7 -72 41 -111 82 -45 48 -81 155 -110 322 -66 381 -70 400
-128 598 -25 83 -52 195 -60 250 -24 146 -134 906 -147 1006 -12 100 -15 426
-4 484 15 86 168 337 260 428 111 110 247 150 394 116z m2662 -631 c-20 -88
-27 -374 -12 -499 16 -144 55 -258 107 -320 12 -14 6 -17 -63 -23 -42 -3 -107
-6 -145 -6 -63 0 -70 2 -116 39 -130 106 -159 142 -188 226 -15 44 -50 128
-77 188 -28 59 -49 109 -47 110 2 2 33 24 69 49 75 54 143 117 219 206 49 57
57 62 95 63 23 0 61 6 86 13 25 8 54 14 66 15 20 1 20 0 6 -61z m-3491 -346
c26 -11 50 -25 53 -31 7 -11 27 -144 117 -756 47 -326 72 -447 133 -650 13
-45 38 -162 55 -260 18 -99 36 -199 41 -222 16 -66 12 -69 -27 -31 -52 49 -73
58 -140 58 -44 0 -73 -7 -112 -26 -95 -48 -129 -136 -110 -285 5 -45 8 -83 6
-86 -9 -8 -82 104 -118 182 -20 44 -49 121 -64 170 -15 50 -71 203 -125 340
-112 287 -129 337 -206 609 -105 375 -124 519 -84 647 48 156 217 321 366 359
56 14 161 5 215 -18z"/>
</g>
</svg>
